<svg viewBox="0 0 22 14" fill="none" xmlns="http://www.w3.org/2000/svg">
    <path width="24" height="24" stroke="white" stroke-width="0.6"
        d="M9.99392 1.64752e-05C14.3881 -0.0451417 18.3582 2.61648 19.9878 6.70002C20.0041 6.79936 20.0041 6.90068 19.9878 7.00002C19.9911 7.113 19.9706 7.22541 19.9279 7.33002C18.2967 11.3812 14.3588 14.0253 9.99392 14C5.62406 14.022 1.68479 11.3691 0.0599735 7.31002C0.019856 7.21162 -0.000518915 7.10629 1.0041e-05 7.00002C0.0012875 6.88742 0.0215604 6.77585 0.0599735 6.67002C1.69114 2.61878 5.629 -0.0252311 9.99392 1.64752e-05ZM2.06875 7.00002C3.5333 10.0498 6.6124 11.9924 9.99392 12C13.3754 11.9924 16.4545 10.0498 17.9191 7.00002C16.4596 3.946 13.3771 2.00201 9.99392 2.00201C6.61076 2.00201 3.52824 3.946 2.06875 7.00002ZM9.99392 5.00002C11.0978 5.00002 11.9927 5.89545 11.9927 7.00002C11.9927 8.10459 11.0978 9.00002 9.99392 9.00002C8.89002 9.00002 7.99514 8.10459 7.99514 7.00002C7.99514 5.89545 8.89002 5.00002 9.99392 5.00002ZM5.99636 7.00002C5.99636 4.79088 7.78613 3.00002 9.99392 3.00002C12.2017 3.00002 13.9915 4.79088 13.9915 7.00002C13.9915 9.20916 12.2017 11 9.99392 11C7.78613 11 5.99636 9.20916 5.99636 7.00002Z"
        fill="currentColor" />
</svg>